<svg xmlns="http://www.w3.org/2000/svg" viewBox="4423.42 833.80 791.57 815.17" width="64" height="64">
  <path d="M5391.88,2315.75c-11.09-14.59-17.55-29.55-30.39-39.86-2.67-2.15-4.13-7-4.37-10.73a183.49,183.49,0,0,1,0-27.84c.94-10.45,3.16-20.79,5.11-33,14.51-11.42,27.09-26.88,42.11-39.93,10.24-8.9,11-20.49,3.29-32.24-4.39-6.65-10-12.63-13.51-19.68-6.81-13.7-16.63-24.05-30.36-30.45-8.78-4.09-15.58-9.62-19.5-18.74a29.4,29.4,0,0,0-6.93-9.65c-3.92-3.64-8.77-6.45-14.41-3.83a43.32,43.32,0,0,1-27.25,3,4.38,4.38,0,0,1-3-2.42c-.59-2.36-1.16-5.1-.48-7.3a14.48,14.48,0,0,1,4.53-6.26c4.06-3.39,8.86-5.94,12.7-9.54,7.82-7.33,14.78-15.29,15.5-26.9.6-9.75,6.38-17.34,11.63-25,3.85-5.58,9.39-9.32,16.8-11,8.2,2.82,17.38,4.94,25.58,9,11.38,5.69,23.13,5.28,35.1,4.85a23.4,23.4,0,0,0,19.93-11.43c9.68-15.8,18.68-32,28-48.05,2.82-4.87,3.71-10.15,1.59-15.27-4.51-10.9-2.15-20.8,3.3-30.51,1.3-2.32,2.41-4.74,3.5-7.17,9.15-20.36,24.46-34.2,45-42.51,7.56-3.06,12.78-8.3,18.07-14.71,6.59-8,16.13-13.53,25-20.64,8.93-.3,18.19-.71,27.45-.91a31.64,31.64,0,0,0,21.53-8.91,138.54,138.54,0,0,1,15.65-12.13c6.05-4.14,12.77-3,17.69,2.69a73.18,73.18,0,0,1,7.1,9.55c4,6.51,10.18,7.83,17,8.09,7.1.27,13.05-2,17.31-7.83,5.35-7.37,6.8-17.28,15.61-23.45,12.29,2.42,25.21,4.85,38.07,7.56,5.66,1.19,9.3,5.45,11.22,10.41,2.38,6.14,2.93,13,5.48,19.06a18.46,18.46,0,0,0,15.1,11.51,34.3,34.3,0,0,0,8-.12c11.12-1.15,21.38-.72,26.86,11.54,1,2.27,3.64,3.81,5.49,5.71,10.85,11.11,24.15,16.12,39.54,15.81a46.94,46.94,0,0,0,7.93-.87,14,14,0,0,1,14.16,4.94c4.33,5,8.08,10.65,12.81,15.26a56.2,56.2,0,0,1,16,27,126.33,126.33,0,0,0,6.76,18.71c5.14,11.93,14.23,19,27.23,20.71a58.88,58.88,0,0,0,7.95.63c10.7-.08,17,5.24,20.85,15.08,4.87,12.55,13.64,22.76,21.84,33.24,8.3,10.63,14.18,22.16,16.56,35.74,3.73,21.22,14.94,39.66,24.11,58.75,2.76,5.74,8,10.69,13,14.86,9.46,7.81,15.62,17.72,22,27.95,13.44,21.43,26.17,43.23,37.68,65.72,8.06,15.77,18.93,28.63,33.63,38.65a222.35,222.35,0,0,1,24.68,20.2c8.11,7.45,12.88,16.89,12.61,28.24-.22,9.29-.38,18.6-1.23,27.84-.52,5.67-4.26,9.67-9.81,11.25-11.42,3.25-22.78,6.89-34.42,9.07-8.25,1.55-14.83,3.9-19.9,11.23-8.68,12.55-22.16,17.91-35.88,23.78-26.94,11.53-52,26.54-70.5,50.22-4.22,5.39-9.28,8.69-15.84,11.16-18.69,7.05-38.26,10.84-57.5,15.46a114.58,114.58,0,0,0-43,19.95,316.31,316.31,0,0,0-35.74,31.71c-5.33,5.48-8.83,13.29-11.56,20.64-3.66,9.9-5.79,20.38-8.55,30.62-.69,2.56-.94,5.3-2,7.69-2.78,6.27-7.56,10.8-13.49,14.14-5.14,2.9-10,1.89-15-.81-7.81-4.23-15.4-2.82-22.6,1.81-7.82,5-16.09,9.5-23.28,15.32-7.41,6-15.08,10.41-24.46,12.63-7.69,1.81-15,5.27-22.43,8.19a17.6,17.6,0,0,0-11.44,18.92c.35,2.61,1.26,5.15,1.76,7.75,2.77,14.28-2,21.9-16.59,25.55a9.1,9.1,0,0,1-7.37-1.86c-13.55-13.38-23.42-28.71-24-48.57a18.15,18.15,0,0,0-22.17-17.13c-15.58,3.21-31.65-1.4-47.1,4.54-5.84,2.25-13.16.68-19.8.82-33.54.71-41.4,1-32.7-37.12,5-21.93,6.68-44.64,9.71-67,.9-6.61-4.25-13.72-10.64-14.7-6.56-1-13.26-1.16-19.79-2.33-9.89-1.78-16.35-11.22-14.25-20.61,1.16-5.16,3.26-10.1,4.54-15.23,2.57-10.29.55-15.53-8.25-19.65-10.8-5.06-21.89-9.5-32.81-14.29-6.06-2.66-12.09-5.37-18-8.25-5.3-2.57-9.12-7.83-7.05-12.75,5.5-13.08-.21-23.23-6.34-33.63a19.63,19.63,0,0,0-12.41-9.25C5401.56,2317.56,5397.64,2316.93,5391.88,2315.75Z" transform="translate(-862.86 -943.66)" fill="currentColor" />
</svg>
