<svg xmlns="http://www.w3.org/2000/svg" viewBox="6187.11 421.73 470.88 382.12" width="64" height="64">
  <path d="M7277,1655.78c4.57-10.27,4.09-15.51-2-21-5.59-5.07-12.43-5.38-18.63-2.75-11.15,4.73-21.3,11.26-25.89,23.4-2.21,5.85-7.17,7.42-12.27,8.75-7.9,2-16.2-6.09-14.79-14,1.93-10.87,6.83-20.31,15.05-27.35,3.78-3.25,9.71-3.88,14.49-6.08,7.48-3.44,11.81-12.08,9.68-19.83-2.46-9-5.33-17.85-8.28-26.68-2.52-7.54-5.4-15-8.12-22.43-4.16-11.38-19.43-17-29.51-10.45-11.12,7.23-21.93,15-32.88,22.46s-22.13,7.58-34.08,2.81c-12.32-4.92-25-8.9-36.6-15.54-11.09-6.34-23.18-5.17-35-3.16-3.62.61-7,3.61-10.13,5.94-2.64,2-4.74,2.11-6.36-.74-.56-1-.25-2.61,0-3.86a7.48,7.48,0,0,1,1.6-3.62c14.92-14.7,21.36-33.11,24.47-53.34,1.45-9.42,6.24-17.09,15.86-21.49,7.17-3.27,15-7.11,19.89-12.94,11.58-13.92,27.85-20,42.62-28.59,4.48-2.61,9.78-1.3,14.39,3,1,.91,2.22,1.68,2.81,2.8,6.68,12.49,18.47,14.7,30.67,13.89,14.55-1,29.28-2.47,41.52-12.14,5.41-4.27,12.05-5.34,18.73-6.06a46.31,46.31,0,0,0,22-8.67,17.33,17.33,0,0,0,7.65-13.37c.36-6.61-.56-13.27-.68-19.91-.16-8.67,3.37-16,10.93-19.94a258.79,258.79,0,0,0,46.26-30.71c2.25-1.88,8.48,2.16,8.62,5.71.44,11.94.94,23.9,1,35.85.08,14.21,15.22,27,25.08,27.19,22.54.57,45.23,3.14,67.24-5.19,6-2.26,13-2.4,19.55-2.59,11.51-.34,21.6,4.16,26.48,14.59,6.87,14.71,18.54,25.82,27.09,39.22,3,4.74,5.61,8.79,4.77,14.34-2.55,16.78,4.47,31.21,11.83,45.21,7,13.4,3.23,25.63-1.86,38a26.45,26.45,0,0,1-6.6,9.84c-11.33,9.79-13.31,22.16-12.09,36.2.8,9.22.38,18.6-.22,27.86-1.41,22,.44,25.49-24.82,25.1a24.11,24.11,0,0,0-3.93.54c-5.13.77-10.38,5.29-11.05,10.11-.91,6.57-1.24,13.23-2.13,19.81-.7,5.14-8.58,7.89-12.59,4.39-5-4.34-9.61-9.12-14.66-13.41-7.19-6.11-18.1-3.54-25.07-11.2-6.22-6.84-13.94-12.29-20.83-18.54-5.29-4.79-11.53-6.2-18.38-6.1-10.61.16-21.05-.32-30.69,6.24A48.62,48.62,0,0,1,7321,1646c-14.72.44-27.61,10.17-42.76,9Z" transform="translate(-862.86 -943.66)" fill="currentColor" />
</svg>
