<svg xmlns="http://www.w3.org/2000/svg" viewBox="6173.39 1291.85 631.85 845.73" width="64" height="64">
  <path d="M7634.25,2619c-2.41,11.21-5.54,22.74-7.15,34.49-1,6.88-3,12.64-7.17,18.06-9,11.58-16,24.43-22.72,37.45-3.82,7.36-6,14.68-5.1,22.9,1.45,13.83-1.65,26.42-10.25,37.53-6.9,8.91-8,19.55-8.49,30.22a26.26,26.26,0,0,0,2.21,11.5c3.82,8.46,8.88,16.38,12.45,24.92,5.62,13.44,11.42,26.83,9.86,42.21-.65,6.46.55,13.37,2.23,19.74,2.44,9.29,2.88,18.28,0,27.44a24.45,24.45,0,0,0-.75,3.92c-2,14.79-1.88,29.21,6.86,42.29,6.7,10,6.45,20.71-.44,29.87-8.32,11.06-12.59,23.24-14.9,36.49-.22,1.3-.47,2.85-1.29,3.73-2.61,2.82-5.09,6.22-8.39,7.8-3.74,1.8-8.1-.15-10.57-3.25-5.78-7.25-10.6-15.29-16.56-22.39-3.29-3.93-7.64-8.16-12.31-9.55-17.84-5.3-23.23-20.32-29-35.09-1.91-4.89-2.29-10.37-3.44-15.56a39.67,39.67,0,0,1,3.26-27.13,110.13,110.13,0,0,0,7.11-18.46c.54-1.9-1.07-5.39-2.79-6.77-4.08-3.28-8.49-7-13.36-8.31-25.67-7.06-48.53-21.63-74.71-27.39-4.6-1-9-5.63-12.21-9.62-7.42-9.26-14.91-14-27.17-7.78-10.38,5.28-21.63,2.7-29.72-4.86-12.55-11.72-26.9-17.68-43.48-16-19.64,2-33.14-5.72-43.51-21.62-12.3-18.85-30.89-28.57-52-34.27-2.56-.69-5.19-1.16-7.7-2-20-6.61-41.73-9.31-57.42-25.56-12.09-5.27-24.26-10.35-36.19-16-2.55-1.2-3-5-.92-6.63,10.46-8.11,21.92-15.06,31.68-23.91,11.22-10.18,23.42-17,38.47-19,3.95-.51,8.62-9,7.1-12.9a82.49,82.49,0,0,0-7.22-14c-2.94-4.65-7.32-7.85-13.05-8-8-.18-15.95.22-23.93.13-11.68-.15-16.66-4.08-17.24-16.58-.42-9-4.17-15.13-10.66-20.24-10.7-8.43-22.16-14.34-36.62-12.86-6.23.63-10-3.55-10.94-9.2-1.4-8.1,1-13.89,6.51-17.4,6.89-4.41,14.36-6.57,22.36-7.88a19.91,19.91,0,0,0,10.43-5.15c8.26-8.48,16-17.49,23.69-26.48,3.07-3.58,3.56-12.63.56-15.07-21.1-17.14-31.52-42.19-47.58-63.71v-51.18c6.67-11.59,12.74-23.44,20-34.5,18.14-27.58,9.8-26.88,46.39-28.17,4-.14,8.28,0,11.82-1.46,14.13-5.84,28.19-6.83,42.82-2,5.2,1.72,10.49,0,15.47-2.11s10-3.62,14.65-6.18c10.54-5.85,21.25-10.72,33.48-12.14,6.64-.78,12.5-4.42,17.42-9.14,3-2.89,4.93-6.58,4.12-10.66-1-5.09-2.91-10-4.33-14.64,13.1-20.56,32.62-30.68,54.72-37.5,10.16-3.13,20-6.71,30.7-8.18,18.4-2.51,36.71-5.76,54.91-9.44,13.11-2.65,26-6.45,38.6,1.37,9.3.35,18.6.53,27.88,1.11,5.27.33,10.81.47,15.64,2.26,3.26,1.21,6.3,4.75,8,8a25.51,25.51,0,0,1,2.36,11.56c-.23,25.88,4.41,23.85,21.52,33.28,7.44,4.1,13.26,9,16.53,16.37,4.45,10,10.45,18.17,19.84,24.2,14.06,9,20.39,24,27.36,38.28a10.65,10.65,0,0,1,0,7.7c-4.36,11-13.85,19.72-14.76,32.36l-11.53,10.76c-1.61,13.37-12.16,19.53-21.23,27.18-3.89,3.29-6.49,8.31-9,12.9-1.92,3.48-2.82,7.66.28,11.14,3.5,3.93,7.78,7.23,10.9,11.42,6.74,9,9.82,18.71,3.53,29.6-3.31,5.73-6,11.84-8.8,17.86-2,4.24-.32,12.8,3.41,14.39,17.94,7.61,29.92,21.65,40.88,36.91,4.64,6.46,9.19,13,14.1,19.25S7632.11,2610.19,7634.25,2619Z" transform="translate(-862.86 -943.66)" fill="currentColor" />
</svg>
